<?xml version="1.0" standalone="no"?>
<!DOCTYPE svg PUBLIC "-//W3C//DTD SVG 1.1//EN" "http://www.w3.org/Graphics/SVG/1.1/DTD/svg11.dtd" >
<!--
2013-9-30: Created.
-->
<svg>
<metadata>
Created by iconfont
</metadata>
<defs>

<font id="iconfont" horiz-adv-x="1024" >
  <font-face
    font-family="iconfont"
    font-weight="500"
    font-stretch="normal"
    units-per-em="1024"
    ascent="896"
    descent="-128"
  />
    <missing-glyph />
    
    <glyph glyph-name="Forward" unicode="&#58884;" d="M0 547.45984l286.72 0-68.27008-85.32992-133.12 0L85.32992-32.8 768-32.8l0 81.92 85.32992 51.2 0-218.44992L0-118.12992 0 547.45984zM682.67008 718.12992l320.84992-307.2L682.67008 120.8l0 204.8c-68.27008 0-205.86496 23.45984-443.72992-136.52992 0 154.66496 167.46496 322.12992 443.72992 324.25984C681.60512 514.39488 682.67008 718.12992 682.67008 718.12992z"  horiz-adv-x="1024" />

    
    <glyph glyph-name="iconhelp" unicode="&#58991;" d="M512 748c-247.424 0-448-200.576-448-448s200.576-448 448-448 448 200.576 448 448S759.424 748 512 748zM512-84c-211.744 0-384 172.256-384 384s172.256 384 384 384 384-172.256 384-384S723.744-84 512-84zM472.672 36.64l0 88.96 73.152 0 0-88.96L472.672 36.64zM479.936 165.216l-0.128 6.272c-0.48 22.272 0.8 41.344 3.744 56.672s7.872 29.472 14.624 41.984c6.656 12.352 15.744 24.448 26.944 35.936 10.848 11.104 23.968 23.616 39.456 37.632 12.736 11.872 23.584 25.376 32.16 40.096 8.224 14.272 12.384 30.368 12.384 47.808 0 13.376-2.56 25.76-7.648 36.864-5.088 11.04-12.064 20.608-20.704 28.416-8.736 7.808-19.104 14.048-30.72 18.56-11.648 4.48-24.16 6.752-37.184 6.752-18.08 0-34.368-3.2-48.352-9.504-13.824-6.24-25.376-14.976-34.336-25.888-9.024-11.072-15.872-24.224-20.384-39.104-4.608-15.136-6.656-31.872-6.176-49.728l0.192-6.592-58.24 0 0 6.4c0 25.984 3.744 50.016 11.136 71.424 7.456 21.6 18.688 40.256 33.408 55.456 14.624 15.2 32.64 27.2 53.536 35.616 20.832 8.416 44.832 12.672 71.36 12.672 20.768 0 40.48-3.168 58.496-9.344 18.144-6.24 34.432-15.456 48.352-27.392 14.08-12.064 25.28-26.784 33.248-43.776 8.032-17.024 12.096-36.768 12.096-58.72 0-27.968-6.24-52.096-18.592-71.68-11.872-19.008-27.328-37.536-45.92-55.104-14.784-14.784-26.656-26.464-35.552-34.848-8.288-7.84-14.496-15.616-18.464-23.136-3.936-7.392-6.592-16.672-7.904-27.552-1.408-11.328-2.336-28.128-2.816-49.984l-0.16-6.272L479.936 165.152z"  horiz-adv-x="1024" />

    
    <glyph glyph-name="contactsn" unicode="&#58889;" d="M775.294 733.925l-470.315 0.407c-75.239 0.16-138.778-56.423-139.144-125.507h64.626c8.216 5.272 18.143 8.376 28.852 8.376 27.998 0 50.567-20.723 50.567-46.307 0-25.631-22.569-46.421-50.567-46.421-12.104 0-23.253 3.97-31.982 10.567h-61.594l-0.146-82.596h64.87c8.216 5.272 18.143 8.377 28.852 8.377 27.998 0 50.567-20.745 50.567-46.308 0-25.607-22.569-46.399-50.567-46.399-12.104 0-23.253 3.994-31.982 10.452h-61.838l-0.194-82.481h65.164c8.216 5.294 18.143 8.352 28.852 8.352 27.998 0 50.567-20.744 50.567-46.307 0-25.606-22.569-46.4-50.567-46.4-12.104 0-23.253 3.972-31.982 10.569h-62.106l-0.22-82.597h65.458c8.216 5.158 18.143 8.332 28.852 8.332 27.998 0 50.567-20.724 50.567-46.376 0-25.585-22.569-46.308-50.567-46.308-12.104 0-23.253 3.904-31.982 10.454h-62.376v-0.915c-0.123-69.222 60.958-126.195 136.318-126.332l472.701 0.307c75.459-0.071 136.711 55.983 136.783 125.136l0.905 543.707c0.024 69.106-61.008 126.172-136.37 126.218zM597.921 549.074c57.071 0 103.357-42.473 103.357-94.897 0-52.378-46.285-94.851-103.357-94.851-57.070 0-103.405 42.474-103.405 94.851-0.001 52.424 46.335 94.897 103.405 94.897zM719.569 123.477h-236.424c-35.676-0.732-30.735 28.163-30.735 28.163s19.951 109.617 46.506 144.626c26.53 34.987 72.987 33.505 72.987 33.505h49.761c0 0 58.268 5.864 84.823-35.262 31.568-36.516 47.902-142.869 47.902-142.869-0.001-28.895-34.821-28.163-34.821-28.163zM110.243 414.124c1.088-14.378 10.894-25.698 23.022-25.698h120.425c12.055 0 21.934 11.32 23.034 25.698 0-0.708 0.049-1.369 0.146-2.054 0.049 0.798 0.171 1.552 0.171 2.373 0 15.566-10.392 28.208-23.204 28.208l-120.424 0c-12.85 0-23.266-12.643-23.266-28.208 0-0.297 0.061-0.456 0.061-0.685-0.001 0.137-0.001 0.297 0.035 0.365zM110.243 570.483c1.088-14.401 10.894-25.676 23.022-25.676h120.425c12.055 0 21.934 11.275 23.034 25.676 0-0.685 0.049-1.346 0.146-1.985 0.049 0.776 0.171 1.529 0.171 2.328 0 15.587-10.392 28.208-23.204 28.208l-120.424-0c-12.85 0-23.266-12.621-23.266-28.208 0-0.274 0.061-0.502 0.061-0.708-0.001 0.137-0.001 0.274 0.035 0.365zM110.243 257.698c1.088-14.402 10.894-25.653 23.022-25.653h120.425c12.055 0 21.934 11.251 23.034 25.653 0-0.685 0.049-1.347 0.146-1.94 0.049 0.731 0.171 1.483 0.171 2.304 0 15.566-10.392 28.208-23.204 28.208l-120.424 0c-12.85 0-23.266-12.643-23.266-28.208 0-0.296 0.061-0.456 0.061-0.685-0.001 0.068-0.001 0.227 0.035 0.32zM276.724 101.268c0-0.706 0.049-1.3 0.146-1.983 0.049 0.751 0.171 1.482 0.171 2.35 0 15.588-10.392 28.208-23.204 28.208h-120.424c-12.85 0-23.266-12.62-23.266-28.208 0-0.227 0.061-0.433 0.061-0.708 0 0.115 0 0.276 0.036 0.343 1.088-14.308 10.894-25.583 23.022-25.583h120.425c12.054-0.001 21.933 11.274 23.033 25.582z"  horiz-adv-x="1024" />

    
    <glyph glyph-name="windows" unicode="&#58885;" d="M125.578 557.694v-221.827l243.037 9.090v263.231l-243.037-50.489zM470.948 636.463v-286.463l428.852 15.821v359.678l-428.852-89.037zM125.578 239.923v-221.827l243.037-50.494v263.232l-243.037 9.089zM470.948 225.789v-286.463l428.852-89.037v359.678l-428.852 15.821z"  horiz-adv-x="1024" />

    
    <glyph glyph-name="iconback" unicode="&#58887;" d="M511.998974 319.999487l0-191.998461-383.996921 319.997434 383.996921 320.000513 0-192.000513c0 0 383.998974-55.34916 383.998974-575.997434C895.997947 0.001026 802.017366 309.2402 511.998974 319.999487z"  horiz-adv-x="1024" />

    
    <glyph glyph-name="iconcloseall" unicode="&#58931;" d="M256.003079 0.002053 256.003079 639.998974l639.996921 0 0-639.996921L256.003079 0.002053zM682.932467 410.828431c7.385977 7.385977 7.385977 19.36651 0 26.75454-7.389056 7.385977-19.369589 7.385977-26.758645 0l-85.474957-85.478036-86.079423 86.079423c-7.411634 7.407529-19.420902 7.407529-26.825352 0-7.407529-7.407529-7.407529-19.417823 0-26.825352l86.079423-86.079423-86.073265-86.070186c-7.392135-7.389056-7.392135-19.36651 0-26.755566 7.389056-7.392135 19.369589-7.392135 26.755566 0l86.073265 86.070186 86.053766-86.056845c7.407529-7.407529 19.417823-7.407529 26.825352 0 7.407529 7.407529 7.407529 19.420902 0 26.828431l-86.053766 86.053766L682.932467 410.828431zM224.003335 96.001283l-96.002309 0L128.001026 767.997947l671.996665 0 0-95.99923L224.003335 671.998717 224.003335 96.001283z"  horiz-adv-x="1024" />

    
    <glyph glyph-name="iconanroid" unicode="&#58948;" d="M851.007833 511.468398c12.537791 0 23.169822-3.705817 31.896091-11.116424 8.721139-7.410607 13.084787-16.482726 13.084787-27.220461l0-226.211842c0-10.228711-4.363648-19.046318-13.084787-26.456925-8.72627-7.410607-19.3583-11.121555-31.896091-11.121555l-14.725773 0c-12.541896 0-23.173927 3.709922-31.895065 11.121555-8.72627 7.410607-13.084787 16.228214-13.084787 26.456925L791.302209 473.131513c0 10.737735 4.358517 19.809854 13.084787 27.220461 8.721139 7.410607 19.353169 11.116424 31.895065 11.116424L851.007833 511.468398 851.007833 511.468398zM187.713834 511.468398c12.541896 0 22.900942-3.705817 31.07919-11.116424 8.179274-7.410607 12.26378-16.482726 12.26378-27.220461l0-226.211842c0-10.228711-4.084506-19.046318-12.26378-26.456925-8.179274-7.410607-18.537294-11.121555-31.07919-11.121555l-14.721668 0c-12.537791 0-23.168795 3.709922-31.896091 11.121555-8.721139 7.410607-13.084787 16.228214-13.084787 26.456925L128.011289 473.131513c0 10.737735 4.363648 19.809854 13.084787 27.220461 8.72627 7.410607 19.3583 11.116424 31.896091 11.116424L187.713834 511.468398 187.713834 511.468398zM639.176941 689.374287c9.816156-4.089637 20.034604-9.715582 30.671766-16.871678 10.63203-7.15199 20.850479-15.589882 30.666635-25.300333 9.816156-9.715582 18.402854-20.322983 25.761122-31.823227 7.363399-11.505376 12.681467-23.649084 15.950098-36.427019L277.678669 578.95203c8.72627 27.095258 22.492491 49.334263 41.303796 66.713939 18.811305 17.380702 37.756023 31.184895 56.841339 41.409501l-41.711221 61.343532c-1.089886 1.022153-1.228431 2.942281-0.408451 5.755254 0.815875 2.812973 3.677082 5.750122 8.586699 8.817607 4.363648 3.575482 8.452259 5.236993 12.268912 4.982481 3.815626-0.254512 6.268382-0.892844 7.363399-1.914997l42.522991-62.878813c15.268663 6.648098 31.353201 11.754756 48.253614 15.33537 16.905544 3.575482 34.352952 5.366302 52.343251 5.366302 37.079719 0 71.701551-7.157122 103.875759-21.470339l43.342971 63.64748c1.093991 1.022153 3.134191 1.531177 6.133943 1.531177s7.497839-1.531177 13.497342-4.598661c5.448402-2.558461 8.586699-4.857278 9.402574-6.90261 0.821006-2.044305 0.681435-3.575482-0.408451-4.602766L639.176941 689.374287zM410.992632 623.426963c7.089389 0 13.084787 2.298817 17.990299 6.90261 4.910643 4.598661 7.363399 10.22358 7.363399 16.871678 0 6.642967-2.452756 12.268912-7.363399 16.866546-4.905512 4.602766-10.90091 6.90261-17.990299 6.90261-7.089389 0-13.084787-2.298817-17.990299-6.90261-4.910643-4.598661-7.363399-10.22358-7.363399-16.866546 0-6.648098 2.452756-12.273017 7.363399-16.871678C397.907845 625.726807 403.903243 623.426963 410.992632 623.426963L410.992632 623.426963zM612.186362 626.494448c7.089389 0 13.089918 2.298817 17.99543 6.90261 4.905512 4.598661 7.358268 10.22358 7.358268 16.871678 0 6.642967-2.452756 12.26378-7.358268 16.871678-4.905512 4.598661-10.905015 6.897478-17.99543 6.897478-7.089389 0-13.089918-2.298817-17.99543-6.897478-4.905512-4.607897-7.358268-10.228711-7.358268-16.871678 0-6.648098 2.452756-12.273017 7.358268-16.871678C599.09747 628.794291 605.096973 626.494448 612.186362 626.494448L612.186362 626.494448zM742.226562 530.63992l0.815875-345.067885c0-11.245733-3.950066-20.706803-11.85533-28.371922-7.905264-7.670251-17.581848-11.505376-29.034885-11.505376l-11.453037 0 0-107.350667c0-10.22358-3.950066-19.170495-11.856356-26.840746-7.905264-7.665119-17.581848-11.500245-29.034885-11.500245l-23.720922 0c-10.90091 0-20.308615 3.835125-28.213879 11.500245-7.905264 7.670251-11.860461 16.617166-11.860461 26.840746L586.012684 145.694736 435.529429 145.694736l0-107.350667c0-10.22358-3.955197-19.170495-11.860461-26.840746-7.905264-7.665119-17.586979-11.500245-29.034885-11.500245l-23.716817 0c-10.905015 0-20.313746 3.835125-28.21901 11.500245-7.905264 7.670251-11.860461 16.617166-11.860461 26.840746L330.837795 145.694736l-8.995149 0c-11.453037 0-21.129621 3.835125-29.029753 11.505376-7.905264 7.665119-11.860461 17.12619-11.860461 28.371922L280.952431 530.63992 742.226562 530.63992 742.226562 530.63992zM742.226562 530.63992"  horiz-adv-x="1024" />

    
    <glyph glyph-name="iconschedule" unicode="&#58953;" d="M832.001539 0.001026 192.004618 0.001026c-35.344317 0-64.002566 28.626434-64.002566 64.001539L128.002053 640.001026c0 35.312504 28.658248 63.999487 64.002566 63.999487l63.996408 0 0-31.998717c0-35.376131 28.657222-64.001539 64.000513-64.001539 35.344317 0 63.996408 28.626434 63.996408 64.001539l0 31.998717 256.002053 0 0-31.998717c0-35.376131 28.658248-64.001539 64.001539-64.001539 35.342265 0 63.995382 28.626434 63.995382 64.001539l0 31.998717 64.002566 0c35.344317 0 63.996408-28.686983 63.996408-63.999487L895.995895 64.002566C895.997947 28.626434 867.344831 0.001026 832.001539 0.001026zM832.001539 544.001796 192.004618 544.001796 192.004618 64.002566l639.996921 0L832.001539 544.001796zM704.002566 640.001026c-17.690631 0-32.001796 14.311165-32.001796 32.00077l0 63.996408c0 17.658817 14.310138 32.00077 32.001796 32.00077 17.684474 0 31.996665-14.341952 31.996665-32.00077l0-63.996408C735.99923 654.312191 721.688066 640.001026 704.002566 640.001026zM320.002566 640.001026c-17.689605 0-32.00077 14.311165-32.00077 32.00077l0 63.996408c0 17.658817 14.310138 32.00077 32.00077 32.00077 17.6855 0 32.001796-14.341952 32.001796-32.00077l0-63.996408C352.003335 654.312191 337.688066 640.001026 320.002566 640.001026zM287.734969 208.770591c20.574416-16.751606 44.600136-25.12279 72.078188-25.12279 17.387885 0 31.192079 4.186105 41.414632 12.562421 10.220501 8.371185 15.332291 20.283985 15.332291 35.736348 0 15.881339-6.073393 28.010679-18.219154 36.385969-12.144734 8.372211-29.169325 12.562421-51.070692 12.562421l-27.478052 0 0 53.930872 25.288018 0c41.414632 0 62.122461 15.160906 62.122461 45.482718 0 28.589489-15.863893 42.884233-47.587573 42.884233-20.707829 0-40.818376-7.363399-60.331642-22.092251l0 57.828599c21.236352 11.982586 46.259595 17.975931 75.065624 17.975931 29.201139 0 52.895378-7.329533 71.082718-21.983468 18.183235-14.657013 27.277931-34.977943 27.277931-60.968948 0-43.896123-20.444081-71.472696-61.327112-82.736901l0-1.082702c21.504205-2.598485 38.692997-11.154396 51.570479-25.664654 12.874404-14.512311 19.314171-32.163945 19.314171-52.955927 0-31.911485-10.720289-56.820814-32.156761-74.721828-21.438525-17.906146-50.010567-26.857166-85.717154-26.857166-31.727785 0-57.278525 5.704967-76.658376 17.109769L287.734969 208.770591zM515.470804 298.005757c0 58.044113 9.821287 102.370239 29.467966 132.983508 19.6436 30.61019 48.050415 45.915799 85.218392 45.915799 70.883624 0 106.326462-57.036328 106.326462-171.102826 0-56.170166-9.626298-99.522373-28.87171-130.061752-19.247464-30.538352-47.058024-45.807015-83.427573-45.807015C551.708992 129.934496 515.470804 185.955855 515.470804 298.005757zM580.579675 299.73808c0-77.397282 15.198878-116.090279 45.596633-116.090279 29.866154 0 44.79923 39.851642 44.79923 119.555951 0 79.991662-14.533862 119.989032-43.604666 119.989032C596.175715 423.192784 580.579675 382.040874 580.579675 299.73808z"  horiz-adv-x="1024" />

    
    <glyph glyph-name="iconflatcolor" unicode="&#58971;" d="M703.998461 255.704438c0 0-75.782979-7.104783-148.462554 31.243391 0 0-140.504951 96.742241-171.536933 96.742241-88.001604 0-191.998461 0-191.998461 0l0-383.954845-63.996408 0 0 767.907637 63.996408 0 191.998461 0c0 0 165.141295 16.951726 232.014303-126.161972 0 0 75.943075-225.776709 279.983644-129.80724C895.996921 511.67365 895.639784 255.60797 703.998461 255.704438z"  horiz-adv-x="1024" />

    
    <glyph glyph-name="icongroup" unicode="&#58972;" d="M723.481964 167.009084c0 0 7.923736-49.4256 7.923736-106.896035L128.002053 60.113049c0 63.627982 6.747645 106.896035 6.747645 106.896035 59.30641 72.585159 156.54536 104.810679 219.367729 119.520032l0.310956 56.522173c-36.201243 15.311766-50.456989 125.578032-52.572107 150.059411-3.403071 39.395983 0.11802 75.715246 0.11802 75.715246 0 49.435863 35.446943 108.152175 124.726238 108.152175 89.278268 0 124.72829-58.717338 124.72829-108.153201 0 0 2.28445-39.035767-0.953393-75.95539-2.879679-32.832038-10.924514-134.512632-50.944462-149.824398l-0.035919-55.015626C562.252764 273.925644 662.663877 241.406615 723.481964 167.009084zM876.201435 253.479511c-53.316144 65.219707-80.441163 88.100124-169.131385 123.559383l0.031814 38.287625c35.083648 13.422425 42.136091 102.535466 44.659659 131.317891 2.838629 32.366117 0.8364 66.574368 0.8364 66.574368 0 43.337839-31.078164 94.805693-109.34366 94.805693-9.956753 0-68.612516-3.774576-81.608018-34.715221 57.385256-47.183227 49.080778-144.756737 49.080778-144.756737-3.375362-38.49185 6.611153-131.233738-44.632977-200.990531l-0.042077-0.157017c142.250615-51.991245 162.189778-67.564706 214.32983-129.626619 0 0 6.869769-38.118292 9.400521-50.433385l106.215626 0C895.997947 197.631589 876.201435 253.479511 876.201435 253.479511z"  horiz-adv-x="1024" />

    
    <glyph glyph-name="iconmyfile" unicode="&#59031;" d="M863.998204 139.683945c-35.40384-46.9164-91.085508-77.697976-154.393297-77.697976s-118.989457 30.780549-154.393297 77.697976c19.708254 67.032079 80.982 116.280136 154.393297 116.280136S844.28995 206.716023 863.998204 139.683945zM612.616364 352.952624c0 53.56655 43.421992 96.988543 96.988543 96.988543 53.56655 0 96.988543-43.421992 96.988543-96.988543s-43.421992-96.988543-96.988543-96.988543C656.038356 255.964081 612.616364 299.386073 612.616364 352.952624zM580.286166 352.952624c0-34.779876 13.89553-66.204915 36.23203-89.446574-59.861616-33.028054-100.891401-95.989994-100.891401-169.190908L192.330968 94.315141c-17.855859 0-32.329172 14.47434-32.329172 32.329172L160.001796 546.930736c0 17.855859 14.47434 32.329172 32.329172 32.329172l581.933309 0c17.855859 0 32.329172-14.47434 32.329172-32.329172L806.59345 437.673281c-23.704502 27.114756-58.141608 44.59911-96.988543 44.59911C638.185576 482.271365 580.286166 424.371954 580.286166 352.952624zM402.473666 514.601563 208.49658 514.601563c-8.92639 0-16.164586-7.238196-16.164586-16.164586s7.238196-16.164586 16.164586-16.164586l193.978112 0c8.92639 0 16.164586 7.238196 16.164586 16.164586S411.400056 514.601563 402.473666 514.601563zM774.264277 611.590106 192.330968 611.590106c-17.855859 0-32.329172-14.47434-32.329172-32.329172l0 64.659371c0 6.020028 2.088435 11.338096 4.955799 16.164586-2.867364 4.82649-4.955799 10.144558-4.955799 16.164586l0 32.329172c0 17.855859 14.47434 32.329172 32.329172 32.329172l226.307284 0c17.855859 0 32.329172-14.47434 32.329172-32.329172l0-32.329172 323.295827 0c17.855859 0 32.329172-14.47434 32.329172-32.329172l0-64.659371C806.59345 597.115767 792.120136 611.590106 774.264277 611.590106z"  horiz-adv-x="1024" />

    
    <glyph glyph-name="icontie" unicode="&#59049;" d="M760.670467 240.920168l-114.668912 281.061215 183.474364-218.037699 0-63.023516L760.670467 240.920168 760.670467 240.920168zM421.538457 625.409693 370.784879 831.997434l248.457005 0-48.853975-206.587741L421.538457 625.409693 421.538457 625.409693zM573.373293 586.716697 733.928242 119.970559 504.567841-63.997434 256.105705 119.970559l164.365444 466.746138L573.373293 586.716697 573.373293 586.716697zM573.373293 586.716697"  horiz-adv-x="1024" />

    
    <glyph glyph-name="iconcontacts1" unicode="&#59510;" d="M831.995382 0.002053 256.003079 0.002053c-35.342265 0-64.000513 28.623355-64.000513 63.996408l31.999743 0c35.340212 0 63.999487 28.626434 63.999487 64.002566 0 35.310451-28.659274 63.999487-63.999487 63.999487L192.002566 192.000513l0 31.999743 31.999743 0c35.340212 0 63.999487 28.623355 63.999487 63.999487 0 35.312504-28.659274 63.999487-63.999487 63.999487L192.002566 351.99923 192.002566 384l31.999743 0c35.340212 0 63.999487 28.624382 63.999487 63.999487 0 35.311477-28.659274 63.999487-63.999487 63.999487L192.002566 511.998974l0 32.00077 31.999743 0c35.340212 0 63.999487 28.625408 63.999487 63.999487 0 35.312504-28.659274 63.999487-63.999487 63.999487L192.002566 671.998717l0 32.00077c0 35.312504 28.659274 63.999487 64.000513 63.999487l575.992303 0c35.342265 0 64.002566-28.686983 64.002566-63.999487l0-640C895.997947 28.624382 867.337647 0.002053 831.995382 0.002053zM728.559888 279.436649c-31.526639 38.564714-81.652147 55.564674-114.183492 62.876761 0.090311 0.749168 0.339691 1.499363 0.339691 2.248531l0 31.407593c11.281652 7.405476 18.84825 20.65549 18.84825 35.904654 0 0 3.873097 17.812756 5.313963 36.626113 1.470627 19.155101 0.49363 39.373405 0.49363 39.373405 0 25.625656-18.376172 56.062409-64.655266 56.062409-46.28012 0-64.654239-30.436753-64.654239-56.062409 0 0-1.619435-18.811305-0.061575-39.249228 1.341319-17.250367 5.876352-36.750291 5.876352-36.750291 0-15.249164 7.559415-28.499178 18.809252-35.904654l0-31.407593c0-0.935947 0.280168-1.87292 0.44437-2.811946-32.565211-7.625095-81.008683-24.687657-111.752287-62.313345 0 0-7.346979-22.249268-7.346979-55.560569l319.842469 0C735.875053 253.436408 728.559888 279.436649 728.559888 279.436649zM256.003079 607.99923c0-17.686526-14.311165-31.998717-32.001796-31.998717l-64.000513 0c-17.690631 0-31.999743 14.312191-31.999743 31.998717 0 17.656765 14.308086 32.00077 31.999743 32.00077l64.000513 0C241.691914 639.998974 256.003079 625.655995 256.003079 607.99923zM160.00077 479.998204l64.000513 0c17.689605 0 32.001796-14.341952 32.001796-31.999743 0-17.686526-14.311165-32.00077-32.001796-32.00077l-64.000513 0c-17.690631 0-31.999743 14.314243-31.999743 32.00077C128.002053 465.656252 142.310138 479.998204 160.00077 479.998204zM160.00077 320.001539l64.000513 0c17.689605 0 32.001796-14.344005 32.001796-32.001796 0-17.686526-14.311165-32.00077-32.001796-32.00077l-64.000513 0c-17.690631 0-31.999743 14.313217-31.999743 32.00077C128.002053 305.657535 142.310138 320.001539 160.00077 320.001539zM160.00077 160.00077l64.000513 0c17.689605 0 32.001796-14.341952 32.001796-31.999743 0-17.688579-14.311165-32.00077-32.001796-32.00077l-64.000513 0c-17.690631 0-31.999743 14.311165-31.999743 32.00077C128.002053 145.658817 142.310138 160.00077 160.00077 160.00077z"  horiz-adv-x="1024" />

    
    <glyph glyph-name="iconfiler" unicode="&#59529;" d="M831.997434 32.001796 192.002566 32.001796c-35.343291 0-64.000513 28.716745-64.000513 64.205765L128.002053 481.440096c0 35.426418 28.657222 64.205765 64.000513 64.205765l639.994869 0c35.343291 0 64.000513-28.779347 64.000513-64.205765L895.997947 96.206534C895.997947 60.718541 867.340726 32.001796 831.997434 32.001796zM166.155238 581.86455c-25.324963 0-28.713666-17.793257-38.154211-23.311445l0 23.311445 0 89.927889c0 35.423339 28.657222 64.205765 64.000513 64.205765l255.996921 0c35.344317 0 63.999487-28.782425 63.999487-64.205765L831.997434 671.792439c35.343291 0 64.000513-54.50455 64.000513-89.927889l0-23.311445c-9.434388 5.518188-10.563271 23.311445-38.154211 23.311445L166.155238 581.86455z"  horiz-adv-x="1024" />

    
    <glyph glyph-name="iconflat" unicode="&#59530;" d="M703.997434 255.704438c0 0-75.782979-7.104783-148.461527 31.243391 0 0-140.504951 96.742241-171.538986 96.742241-88.001604 0-191.998461 0-191.998461 0l0-383.954845-63.995382 0 0 767.907637 63.995382 0 191.998461 0c0 0 165.143347 16.951726 232.016356-126.161972 0 0 75.943075-225.776709 279.983644-129.80724C895.996921 511.67365 895.638757 255.60797 703.997434 255.704438zM575.996408 575.666979C535.285789 712.246494 383.996921 703.651585 383.996921 703.651585L191.998461 703.651585l0-255.969212 191.998461 0c76.000545-4.000353 137.600641-63.819892 137.600641-63.819892 121.441187-88.770271 183.013574-73.376404 183.013574-73.376404 106.211521 15.39284 126.675101 127.880954 126.675101 127.880954C663.049749 404.384558 575.996408 575.666979 575.996408 575.666979z"  horiz-adv-x="1024" />

    
    <glyph glyph-name="iconemailcontacts" unicode="&#59542;" d="M832.004618 511.998974l0-63.993329-64.000513 0L768.004105 384l-64.000513 0 0-63.999487-64.000513 0L640.003079 448.005644 448.002566 448.005644l0 191.992303 192.000513 0L640.003079 767.997947l64.000513 0 0-63.999487 64.000513 0 0-63.999487 64.000513 0 0-63.999487 63.994356 0 0-63.999487L832.004618 512zM768.004105 64.001539l0-63.999487-64.000513 0L448.002566 0.002053l0 63.999487 256.001026 0L704.003592 320.000513l64.000513 0L768.004105 64.001539zM256.002053 384l-64.000513 0L192.001539 639.998974l0 63.999487 64.000513 0L448.002566 703.998461l0-63.999487L256.002053 639.998974 256.002053 384zM320.002566 448.005644l64.000513 0L384.003079 384l0-63.999487-64.000513 0-64.000513 0L256.002053 384l64.000513 0L320.002566 448.005644zM192.001539 256.007184l0 63.993329 64.000513 0 0-63.993329L192.001539 256.007184zM256.002053 128.001026l-64.000513 0 0 63.999487 64.000513 0L256.002053 128.001026zM576.003592 192.000513l0 64.005644L384.003079 256.006158l0 63.993329 192.000513 0 64.000513 0 0-63.993329 0-64.005644 0-63.999487-64.000513 0L384.003079 128.001026l0 63.999487L576.003592 192.000513zM384.003079 64.001539l0-63.999487-64.000513 0 0 63.999487-64.000513 0 0 63.999487 128 0L384.002053 64.001539zM128.002053 192.000513l0 64.005644 64.000513 0 0-64.005644L128.002053 192.000513z"  horiz-adv-x="1024" />

    
    <glyph glyph-name="iconmore" unicode="&#59548;" d="M863.998204 0.002053 736.000257 0.002053c-17.692684 0-32.002822 14.313217-32.002822 32.00077L703.997434 160.00077c0 17.658817 14.309112 32.00077 32.002822 32.00077l127.998974 0c17.678316 0 31.999743-14.341952 31.999743-32.00077l0-127.998974C895.997947 14.31527 881.67652 0.002053 863.998204 0.002053zM863.998204 288.00077 736.000257 288.00077c-17.692684 0-32.002822 14.312191-32.002822 31.999743L703.997434 448.000513c0 17.656765 14.309112 31.999743 32.002822 31.999743l127.998974 0c17.678316 0 31.999743-14.342979 31.999743-31.999743l0-128C895.997947 302.312961 881.67652 288.00077 863.998204 288.00077zM863.998204 575.999487 736.000257 575.999487c-17.692684 0-32.002822 14.312191-32.002822 31.999743L703.997434 735.998204c0 17.657791 14.309112 31.999743 32.002822 31.999743l127.998974 0c17.678316 0 31.999743-14.342979 31.999743-31.999743l0-127.998974C895.997947 590.311678 881.67652 575.999487 863.998204 575.999487zM575.999487 0.002053 448.000513 0.002053c-17.691658 0-32.00077 14.313217-32.00077 32.00077L415.999743 160.00077c0 17.658817 14.308086 32.00077 32.00077 32.00077l128 0c17.678316 0 31.999743-14.341952 31.999743-32.00077l0-127.998974C607.99923 14.31527 593.677803 0.002053 575.999487 0.002053zM575.999487 288.00077 448.000513 288.00077c-17.691658 0-32.00077 14.312191-32.00077 31.999743L415.999743 448.000513c0 17.656765 14.308086 31.999743 32.00077 31.999743l128 0c17.678316 0 31.999743-14.342979 31.999743-31.999743l0-128C607.99923 302.312961 593.677803 288.00077 575.999487 288.00077zM575.999487 575.999487 448.000513 575.999487c-17.691658 0-32.00077 14.312191-32.00077 31.999743L415.999743 735.998204c0 17.657791 14.308086 31.999743 32.00077 31.999743l128 0c17.678316 0 31.999743-14.342979 31.999743-31.999743l0-127.998974C607.99923 590.311678 593.677803 575.999487 575.999487 575.999487zM287.999743 0.002053 160.001796 0.002053c-17.692684 0-31.999743 14.313217-31.999743 32.00077L128.002053 160.00077c0 17.658817 14.30706 32.00077 31.999743 32.00077l127.998974 0c17.679343 0 32.001796-14.341952 32.001796-32.00077l0-127.998974C320.001539 14.31527 305.679086 0.002053 287.999743 0.002053zM287.999743 288.00077 160.001796 288.00077c-17.692684 0-31.999743 14.312191-31.999743 31.999743L128.002053 448.000513c0 17.656765 14.30706 31.999743 31.999743 31.999743l127.998974 0c17.679343 0 32.001796-14.342979 32.001796-31.999743l0-128C320.001539 302.312961 305.679086 288.00077 287.999743 288.00077zM287.999743 575.999487 160.001796 575.999487c-17.692684 0-31.999743 14.312191-31.999743 31.999743L128.002053 735.998204c0 17.657791 14.30706 31.999743 31.999743 31.999743l127.998974 0c17.679343 0 32.001796-14.342979 32.001796-31.999743l0-127.998974C320.001539 590.311678 305.679086 575.999487 287.999743 575.999487z"  horiz-adv-x="1024" />

    
    <glyph glyph-name="iconnewtab" unicode="&#59576;" d="M702.972203 572.927897l0 63.999487 63.999487 0 0-63.999487L702.972203 572.927897zM574.973229 572.927897l0 63.999487 63.999487 0 0-63.999487L574.973229 572.927897zM638.972716 444.927897l-63.999487 0 0 64.005644 63.999487 0L638.972716 444.927897zM766.972716 508.934568l0-64.005644-63.999487 0 0 64.005644L766.972716 508.934568zM894.97169 572.927897l0-63.993329L766.972716 508.934568l0 63.993329L894.97169 572.927897zM830.966045 380.928411l-63.993329 0 0 63.999487 63.993329 0L830.966045 380.928411zM702.972203 316.935081l-63.999487 0L638.972716 444.927897l63.999487 0L702.972203 316.935081zM510.973742 380.928411l0 63.999487 63.999487 0 0-63.999487L510.973742 380.928411zM446.967072 508.934568l0 63.993329 128.006158 0 0-63.993329L446.967072 508.934568zM510.973742 700.926871l63.999487 0 0-63.999487L510.973742 636.927384 510.973742 700.926871zM638.972716 764.926358l63.999487 0 0-127.998974-63.999487 0L638.972716 764.926358zM830.966045 700.926871l0-63.999487-63.993329 0 0 63.999487L830.966045 700.926871zM190.975282 65.402381l511.997947 0L702.973229 252.929437l63.999487 0 0-187.526029 0-63.999487-63.999487 0L190.975282 1.403921l-63.999487 0 0 63.999487L126.975795 444.927897 126.975795 572.927897l0 63.999487 255.998974 0 0-191.999487L190.975282 444.927897 190.975282 65.402381z"  horiz-adv-x="1024" />

    
    <glyph glyph-name="iconsreachm" unicode="&#59597;" d="M881.939242 81.633674 731.851096 231.155326c42.766214 56.161956 68.147621 126.183524 68.147621 202.113257 0 184.865969-150.431942 334.729365-335.998845 334.729365S128.002053 618.134552 128.002053 433.268583s150.431942-334.729365 335.998845-334.729365c74.724907 0 143.747925 24.305889 199.549665 65.407513l150.506859-149.938312c18.746651-18.674813 49.137222-18.674813 67.883873 0C900.684867 32.682205 900.684867 62.959888 881.939242 81.633674zM464.000898 192.726077c-132.548374 0-239.999615 107.045869-239.999615 239.09343 0 132.046534 107.451241 239.092403 239.999615 239.092403 132.547348 0 239.998589-107.045869 239.998589-239.092403C703.999487 299.771946 596.548246 192.726077 464.000898 192.726077z"  horiz-adv-x="1024" />

    
    <glyph glyph-name="icontabclose" unicode="&#59599;" d="M569.990748 384.052339l186.181632-186.181632c16.028094-16.028094 16.028094-42.01294 0-58.041034-16.028094-16.028094-42.01294-16.028094-58.041034 0L511.949713 326.018489 325.73011 139.798886c-15.982938-15.990122-41.898-15.990122-57.887096 0-15.982938 15.990122-15.982938 41.904157 0 57.887096l186.219603 186.219603L267.823516 570.138529c-16.021936 16.028094-16.021936 42.01294 0 58.03385 16.028094 16.028094 42.01294 16.028094 58.041034 0L512.102626 441.940461l184.934728 184.934728c15.982938 15.982938 41.898 15.982938 57.880938 0 15.990122-15.982938 15.990122-41.904157 0-57.887096L569.990748 384.052339z"  horiz-adv-x="1024" />

    
    <glyph glyph-name="iconcompanyfile" unicode="&#59613;" d="M767.998974 63.293422l0 63.999487-95.99923 0 0-63.999487-95.99923 0L576.000513 383.291882l287.998717 0 0-319.998461L767.998974 63.293422zM639.998974 351.292139l-31.999743 0 0-31.999743 31.999743 0L639.998974 351.292139zM639.998974 287.291626l-31.999743 0 0-31.999743 31.999743 0L639.998974 287.291626zM639.998974 223.292139l-31.999743 0 0-31.999743 31.999743 0L639.998974 223.292139zM703.999487 351.292139l-31.999743 0 0-31.999743 31.999743 0L703.999487 351.292139zM703.999487 287.291626l-31.999743 0 0-31.999743 31.999743 0L703.999487 287.291626zM703.999487 223.292139l-31.999743 0 0-31.999743 31.999743 0L703.999487 223.292139zM767.998974 351.292139l-31.999743 0 0-31.999743 31.999743 0L767.998974 351.292139zM767.998974 287.291626l-31.999743 0 0-31.999743 31.999743 0L767.998974 287.291626zM767.998974 223.292139l-31.999743 0 0-31.999743 31.999743 0L767.998974 223.292139zM831.998461 351.292139 799.998717 351.292139l0-31.999743 31.999743 0L831.998461 351.292139zM831.998461 287.291626 799.998717 287.291626l0-31.999743 31.999743 0L831.998461 287.291626zM831.998461 223.292139 799.998717 223.292139l0-31.999743 31.999743 0L831.998461 223.292139zM703.999487 415.291626 575.999487 415.291626l0 31.999743 127.998974 0 0 31.999743 127.998974 0 0-31.999743 31.999743 0 0-31.999743-31.999743 0L703.999487 415.291626zM671.998717 479.291112 543.999743 479.291112 543.999743 95.293165 192.001539 95.293165c-17.673185 0-31.999743 14.326558-31.999743 31.999743L160.001796 543.290599c0 17.673185 14.326558 31.999743 31.999743 31.999743l287.998717 0 287.998717 0c17.673185 0 31.999743-14.326558 31.999743-31.999743l0-31.999743L671.998717 511.290856 671.998717 479.291112zM400.000385 511.290856 208.001924 511.290856c-8.835053 0-16.000385-7.164305-16.000385-16.000385s7.164305-16.000385 16.000385-16.000385l191.999487 0c8.835053 0 16.000385 7.164305 16.000385 16.000385S408.835438 511.290856 400.000385 511.290856zM767.998974 607.290086l-575.997434 0c-17.673185 0-31.999743-14.326558-31.999743-31.999743l0 63.999487c0 5.958453 2.066883 11.222129 4.905512 16.000385-2.838629 4.77723-4.905512 10.041932-4.905512 16.000385l0 31.999743c0 17.673185 14.326558 31.999743 31.999743 31.999743l223.99923 0c17.673185 0 31.999743-14.326558 31.999743-31.999743l0-31.999743 319.998461 0c17.673185 0 31.999743-14.326558 31.999743-31.999743l0-63.999487C799.998717 592.964554 785.672159 607.290086 767.998974 607.290086z"  horiz-adv-x="1024" />

    
    <glyph glyph-name="iconcreate" unicode="&#59615;" d="M723.846286 549.48817l-43.696003 45.256941 75.69472 77.253606 43.696003-45.256941L723.846286 549.48817zM453.074332 272.47349l0.121098-0.128282-65.912431-22.755213 21.971153 68.264614 0.125203-0.128282 248.924979 254.390828 43.691898-45.253862L453.074332 272.47349zM285.796368 160.003848l450.203889-0.006158L736.000257 415.994612l63.999487 63.999487 0-351.996152c0-17.670106-14.937182-31.996665-31.999743-31.996665l-513.102201 0.003079c-17.062562 0-30.89549 14.326558-30.89549 31.999743L224.002309 639.995895c0 17.673185 13.833955 32.002822 30.89549 32.002822l353.103484-0.003079-63.999487-64.002566-258.205428 0.003079L285.796368 160.003848z"  horiz-adv-x="1024" />

    
    <glyph glyph-name="iconaccfile" unicode="&#59620;" d="M751.999615 463.998845c-79.528819 0-143.998332-64.469513-143.998332-143.998332l0-191.998461c0-16.920938 3.456436-32.918244 8.815554-47.999102l-72.815041 0L352.003335 80.00295c-0.003079 0-0.003079 0-0.006158 0L192.001539 80.00295c-17.670106 0-31.999743 14.329637-31.999743 31.999743L160.001796 527.998332c0 17.673185 14.329637 31.999743 31.999743 31.999743l575.994356 0c8.838132 0 16.837811-3.580613 22.63001-9.372812 0.941078-0.941078 1.414183-2.258793 2.233137-3.311734 4.214841-5.420694 7.13557-11.916905 7.13557-19.315197l0-72.815041C784.917859 460.543436 768.920553 463.998845 751.999615 463.998845zM400.002437 495.998589 208.003977 495.998589c-8.838132 0-16.003464-7.164305-16.003464-15.999359s7.164305-15.999359 16.003464-15.999359l191.998461 0c8.835053 0 15.99628 7.164305 15.99628 15.999359S408.83749 495.998589 400.002437 495.998589zM767.995895 591.997819 192.001539 591.997819c-17.670106 0-31.999743-14.326558-31.999743-31.999743l0 63.999487c0 5.958453 2.069962 11.225207 4.905512 15.999359-2.83555 4.77723-4.905512 10.041932-4.905512 15.999359l0 31.999743c0 17.673185 14.329637 31.999743 31.999743 31.999743l223.998204 0c17.676264 0 32.002822-14.326558 32.002822-31.999743l0-31.999743 319.993329 0c17.673185 0 31.999743-14.326558 31.999743-31.999743l0-63.999487C799.995638 577.672287 785.66908 591.997819 767.995895 591.997819zM751.999615 431.999102c-61.861792 0-111.998589-50.124482-111.998589-111.998589l0-31.996665 0-160.001796c0 0-0.850768-31.075085 16.384205-47.999102 14.562598-19.312119 37.523063-31.999743 63.615666-31.999743 44.197843 0 79.998845 35.811265 79.998845 79.998845l0 31.999743L799.999743 288.003848l0 31.996665c0 26.499002-21.493943 47.999102-47.999102 47.999102-26.489765 0-47.999102-21.501126-47.999102-47.999102l0-159.998717 0-47.951894 31.999743-0.048234L736.001283 320.000513c0 8.844289 7.158148 15.999359 15.999359 15.999359 8.825817 0 16.000385-7.155069 16.000385-15.999359l0-15.99628 0-176.001155c0-26.502081-21.493943-47.999102-47.999102-47.999102-26.489765 0-47.999102 21.497021-47.999102 47.999102L672.002822 304.004233l0 15.99628c0 44.188607 35.817422 79.998845 79.998845 79.998845 44.200922 0 79.998845-35.811265 79.998845-79.998845l0-207.822329 31.999743 0L864.000257 320.000513C863.998204 381.875646 813.848066 431.999102 751.999615 431.999102z"  horiz-adv-x="1024" />

    
    <glyph glyph-name="iconmyschedule" unicode="&#59636;" d="M767.998974 439.044362l0 106.402405L192.004618 545.446767l0-415.996665 310.381399 0c5.321147-11.142081 11.132844-21.968074 18.147316-31.999743L192.004618 97.450359c-16.51454 0-31.999743 18.476745-31.999743 31.999743l-0.003079 512.027709c0 15.474941 16.48991 31.967929 32.002822 31.967929l95.99923 0 0-47.999102c0-26.508238 21.490864-47.999102 47.999102-47.999102 26.508238 0 47.999102 21.490864 47.999102 47.999102l0 47.999102 191.998461 0 0-47.999102c0-26.508238 21.490864-47.999102 47.999102-47.999102s47.999102 21.490864 47.999102 47.999102l0 47.999102 95.99923 0c18.514716 0 32.140341-14.492812 32.140341-31.967929l-0.060549-214.459138C789.81003 431.927264 779.061006 435.725444 767.998974 439.044362zM624.000641 609.445228c-8.835053 0-16.000385 7.164305-16.000385 15.999359l0 95.99923c0 8.835053 7.164305 15.999359 16.000385 15.999359s15.999359-7.164305 15.999359-15.999359l0-95.99923C640 616.610559 632.835695 609.445228 624.000641 609.445228zM336.00295 609.445228c-8.835053 0-15.999359 7.164305-15.999359 15.999359l0 95.99923c0 8.835053 7.164305 15.999359 15.999359 15.999359s15.999359-7.164305 15.999359-15.999359l0-95.99923C352.003335 616.610559 344.838004 609.445228 336.00295 609.445228zM608.000257 513.445997l0-63.999487 95.99923 0c-47.679936 0-91.678685-15.139355-127.998974-40.531024l0 8.531281-63.999487 0 0-63.999487 8.531281 0c-25.39167-36.319262-40.531024-80.319038-40.531024-127.998974l-63.999487 0 0-63.999487-31.999743 0 0 63.999487-63.999487 0 0-63.999487-31.999743 0 0 63.999487-63.999487 0 0 31.999743 63.999487 0 0 63.999487-63.999487 0L224.003335 353.448306l63.999487 0 0 63.999487-63.999487 0 0 31.999743 63.999487 0 0 63.999487 31.999743 0 0-63.999487 63.999487 0 0 63.999487 31.999743 0 0-63.999487 63.999487 0 0 63.999487 31.999743 0 0-63.999487 63.999487 0 0 63.999487L608.000257 513.447023zM384.003079 417.447793l-63.999487 0 0-63.999487 63.999487 0L384.003079 417.447793zM384.003079 321.448563l-63.999487 0 0-63.999487 63.999487 0L384.003079 321.448563zM480.002309 417.447793l-63.999487 0 0-63.999487 63.999487 0L480.002309 417.447793zM480.002309 321.448563l-63.999487 0 0-63.999487 63.999487 0L480.002309 321.448563zM735.99923 446.220982c-10.540694 1.519888-21.03931 3.225528-31.999743 3.225528l31.999743 0L735.99923 446.220982zM480.002309 161.449846l0 63.999487c0-22.400128 4.284626-43.593377 10.403175-63.999487L480.002309 161.449846zM703.999487 65.450615c-88.363873 0-159.998717 71.634845-159.998717 159.998717s71.634845 159.998717 159.998717 159.998717 159.998717-71.634845 159.998717-159.998717S792.363359 65.450615 703.999487 65.450615zM777.22811 289.448819l-89.817054-85.627869-56.639166 53.999631-22.770607-21.711509 79.102922-74.6582L799.998717 267.740389 777.22811 289.448819z"  horiz-adv-x="1024" />

    
    <glyph glyph-name="iconhome" unicode="&#59644;" d="M834.244939 329.505713c0 111.04109-89.284426 246.507116-303.156544 246.507116L430.002004 576.012828 430.002004 703.987172 194.270595 511.974344l234.807777-162.046101 1.026258 130.026859 101.08639 0c66.809381 0.205252 195.912608-33.250752 195.912608-150.449389 0-132.182-111.862097-169.537783-195.912608-169.537783L295.25436 159.967929l0-95.955101 243.838845 0C723.922229 64.012828 834.244939 191.06354 834.244939 329.505713L834.244939 329.505713zM834.244939 329.505713"  horiz-adv-x="1024" />

    
    <glyph glyph-name="iconinbox" unicode="&#59646;" d="M799.995638 639.97537l0-511.972291c0-17.673185-14.326558-31.999743-31.999743-31.999743L256.001026 96.003335c-17.673185 0-31.999743 14.326558-31.999743 31.999743L224.001283 639.993842c0 17.673185 14.326558 32.002822 31.999743 32.002822l0.063628-0.009236 95.938681 0c17.673185 0 31.999743-14.326558 31.999743-31.996665 0-17.673185-14.326558-31.999743-31.999743-31.999743l-63.70803 0c0.457711-109.144566-0.294536-447.989224-0.294536-447.989224 0-0.675278 14.326558 0 31.996665 0l415.998717 0c0 20.403031 0 25.023243 0 25.871958 0 0.086206 0 0.358164 0 0.374584 0 0.53468 0 1.878052 0 5.753201 0 0-0.746089 311.599567-0.297615 415.989481l-63.695715 0c-17.676264 0-31.999743 14.326558-31.999743 31.999743 0 17.670106 14.32348 31.996665 31.999743 31.996665l95.84837 0c0.009236 0 0.143676 0.009236 0.143676 0.009236 13.254119 0 24.630186-8.060229 29.487464-19.548158 1.619435-3.829994 2.515358-8.038677 2.515358-12.457743C799.998717 639.984606 799.995638 639.981527 799.995638 639.97537zM512.002053 255.997947 384.003079 383.993842l96.002309 0-0.003079 160.001796 63.996408 0 0.003079-160.001796 96.002309 0L512.002053 255.997947zM480.005388 671.987428l63.996408 0 0-95.99923-63.996408 0L480.005388 671.987428z"  horiz-adv-x="1024" />

    
    <glyph glyph-name="iconunlock" unicode="&#59658;" d="M870.642197-63.961515 397.607152-63.961515c-54.993049 0-99.574712 45.839856-99.574712 102.394869l0.030788 345.563568c0 98.555638 67.207569 128.010263 122.201644 128.010263l0.235013 0 0 191.869152c0 30.661503-15.084963 64.021038-44.881331 64.021038L159.779098 767.897374c-29.802526 0-44.887488-33.359535-44.887488-64.021038l0-65.585055L53.769749 638.291281l0 65.585055c0 56.619667 34.392977 128.086206 89.41476 128.086206l249.027605 0c55.021784 0 89.408603-71.466538 89.408603-128.086206l0-191.869152 265.758685 0c0.445396-0.139571 0.909264-0.238092 1.397763-0.238092l106.600473 0c53.450583-3.364073 114.829008-43.150034 114.829008-127.772171l0.02463-345.563568C970.230251-18.12166 925.641403-63.961515 870.642197-63.961515zM634.395606 371.627436c-43.844811 0-79.383091-35.413077-79.383091-79.102922 0-31.543059 18.563977-58.69476 45.357515-71.396753l0-109.421656c0-18.726125 15.235823-33.910635 34.025576-33.910635 18.789753 0 34.018392 15.18451 34.018392 33.910635L668.413999 221.128787c26.800722 12.701992 45.364698 39.853694 45.364698 71.396753C713.778697 336.215386 678.233233 371.627436 634.395606 371.627436z"  horiz-adv-x="1024" />

    
    <glyph glyph-name="iconsetschedule" unicode="&#59669;" d="M767.998974 426.221271l0 86.383195-575.997434 0 0-415.996665 296.532051 0c8.035598-11.491008 17.030748-22.223612 27.026498-31.999743l-323.558549 0c-16.511461 0-31.996665 18.476745-31.996665 31.999743l-0.003079 512.027709c0 15.47802 16.485805 31.967929 31.999743 31.967929l96.002309 0 0-47.999102c0-26.508238 21.487785-47.999102 47.996023-47.999102 26.511317 0 48.003207 21.490864 48.003207 47.999102l0 47.999102 191.998461 0 0-47.999102c0-26.508238 21.487785-47.999102 47.999102-47.999102 26.508238 0 47.996023 21.490864 47.996023 47.999102l0 47.999102 96.002309 0c18.514716 0 32.140341-14.489733 32.140341-31.967929l-0.05747-200.631341C790.024518 415.043271 779.173895 420.886783 767.998974 426.221271zM624.000641 576.603953c-8.835053 0-16.003464 7.164305-16.003464 15.999359l0 95.99923c0 8.835053 7.168411 15.999359 16.003464 15.999359s15.99628-7.164305 15.99628-15.999359l0-95.99923C639.996921 583.768258 632.835695 576.603953 624.000641 576.603953zM335.999872 576.603953c-8.835053 0-15.99628 7.164305-15.99628 15.999359l0 95.99923c0 8.835053 7.161227 15.999359 15.99628 15.999359 8.838132 0 16.003464-7.164305 16.003464-15.999359l0-95.99923C352.003335 583.768258 344.838004 576.603953 335.999872 576.603953zM607.997178 438.198725c-11.030218-3.305576-21.753586-7.088362-31.996665-11.977454l0 54.383452 31.996665 0L607.997178 438.198725zM512.002053 480.604722l0-63.999487 46.284225 0c-15.423628-9.158324-29.976989-19.532764-42.72619-31.999743l-3.558036 0 0-3.558036c-12.466979-12.748174-22.844498-27.30564-31.999743-42.729268L480.002309 384.605492l-64.002566 0 0-63.999487 54.38653 0c-4.889092-10.243079-8.671878-20.966446-11.980533-31.999743l-42.405997 0 0-63.999487 32.002822 0 0 0c0-10.959407 1.70564-21.45905 3.225528-31.999743l-35.22835 0 0-63.999487-31.999743 0 0 63.999487-63.996408 0 0-63.999487-31.999743 0 0 63.999487L224.001283 192.607031l0 31.999743 64.002566 0 0 63.999487L224.001283 288.606262l0 31.999743 64.002566 0L288.003848 384.605492 224.001283 384.605492l0 31.999743 64.002566 0 0 63.999487 31.999743 0 0-63.999487 63.996408 0 0 63.999487 31.999743 0 0-63.999487 64.002566 0 0 63.999487L512.002053 480.604722zM384 384.605492l-63.996408 0 0-63.999487 63.996408 0L384 384.605492zM384 288.606262l-63.996408 0 0-63.999487 63.996408 0L384 288.606262zM847.998845 192.607031l-35.686061 0c-3.657583-16.047593-9.983436-31.02993-18.499323-44.563191l25.279808-25.251072c6.24991-6.246831 6.24991-16.390363 0-22.640273l-22.623852-22.623852c-6.24991-6.24991-16.390363-6.24991-22.640273 0l-25.266466 25.263387c-13.516841-8.499467-28.499178-14.84174-44.563191-18.499323l0-35.686061c0-8.844289-7.155069-15.999359-15.999359-15.999359l-31.999743 0c-8.828896 0-15.999359 7.155069-15.999359 15.999359l0 35.686061c-16.047593 3.657583-31.02993 9.999856-44.546771 18.499323l-25.263387-25.263387c-6.252989-6.24991-16.377021-6.24991-22.626931 0l-22.623852 22.623852c-6.24991 6.24991-6.24991 16.393442 0 22.640273l25.251072 25.251072c-8.499467 13.532235-14.844819 28.514572-18.502401 44.563191l-35.686061 0c-8.828896 0-15.999359 7.155069-15.999359 16.000385l0 31.999743c0 8.841211 7.171489 15.999359 15.999359 15.999359l35.686061 0c3.657583 16.047593 10.002934 31.02993 18.502401 44.563191l-25.251072 25.263387c-6.24991 6.23349-6.24991 16.377021 0 22.623852l22.623852 22.626931c6.24991 6.24991 16.373943 6.24991 22.626931 0l25.263387-25.266466c13.516841 8.514861 28.499178 14.844819 44.546771 18.502401l0 35.686061c0 8.844289 7.171489 15.999359 15.999359 15.999359l31.999743 0c8.844289 0 15.999359-7.155069 15.999359-15.999359l0-35.686061c16.064013-3.657583 31.04635-9.987541 44.563191-18.502401l25.266466 25.266466c6.24991 6.24991 16.390363 6.24991 22.640273 0l22.623852-22.626931c6.24991-6.245805 6.24991-16.390363 0-22.623852l-25.279808-25.263387c8.514861-13.532235 14.84174-28.514572 18.499323-44.563191l35.686061 0c8.844289 0 16.000385-7.158148 16.000385-15.999359l0-31.999743C863.998204 199.762101 856.843135 192.607031 847.998845 192.607031zM671.999743 288.606262c-35.343291 0-63.999487-28.656196-63.999487-63.999487s28.656196-63.999487 63.999487-63.999487 63.999487 28.656196 63.999487 63.999487S707.344061 288.606262 671.999743 288.606262z"  horiz-adv-x="1024" />

    
    <glyph glyph-name="iconqr" unicode="&#59331;" d="M927.701958-127.282123 96.195498-127.282123C43.380276-127.282123 0.307667-84.312068 0.307667-31.394291L0.307667 223.862193c0 17.639259 14.357536 31.996795 31.996795 31.996795s31.996795-14.357536 31.996795-31.996795l0-255.256485c0-17.639259 14.357536-31.996795 31.996795-31.996795l831.403906 0c17.639259 0 31.996795 14.357536 31.996795 31.996795L959.698753 224.374962c0 17.639259 14.357536 31.996795 31.996795 31.996795s31.996795-14.357536 31.996795-31.996795l0-255.769254C1023.58979-84.312068 980.517181-127.282123 927.701958-127.282123zM991.592995 511.83335c-17.639259 0-31.996795 14.357536-31.996795 31.996795L959.596199 800.009614c0 17.639259-14.357536 31.996795-31.996795 31.996795L96.195498 832.00641c-17.639259 0-31.996795-14.357536-31.996795-31.996795l0-255.153931c0-17.639259-14.357536-31.996795-31.996795-31.996795S0.307667 527.216425 0.307667 544.855684L0.307667 800.009614C0.307667 852.927391 43.380276 896 96.195498 896l831.403906 0c52.917777 0 95.887832-43.072609 95.887832-95.887832l0-256.179469C1023.58979 526.190886 1009.232254 511.83335 991.592995 511.83335zM991.285333 351.439159l-957.852779 0c-17.536705 0-31.791688 14.254982-31.791688 31.791688s14.254982 31.791688 31.791688 31.791688l957.852779 0c17.536705 0 31.791688-14.254982 31.791688-31.791688S1008.822038 351.439159 991.285333 351.439159z"  horiz-adv-x="1024" />

    
    <glyph glyph-name="icondp" unicode="&#59333;" d="M998.343556 406.269794c-17.754259-41.871317-43.102826-79.534977-75.429946-111.862097-32.32712-32.32712-69.888154-57.675687-111.862097-75.429946-43.410704-18.370014-89.489677-27.70896-136.902786-27.70896-50.902385 0-101.599519 11.083584-147.473241 32.32712L385.87292 81.253959l0-81.382241c0-17.549008-13.957106-31.916617-31.506113-31.916617l-64.962117 0 0-63.525356c0-17.549008-13.957106-31.916617-31.506113-31.916617L128.897976-127.486871c-8.415314 0-16.52275 3.386651-22.475045 9.338946l-96.878733 96.46823c-5.952295 5.952295-9.544197 14.059731-9.544197 22.577671 0 0 0 0 0 0 0 8.415314 3.489276 16.52275 9.441571 22.475045l354.161555 354.05893c-27.195831 50.799759-41.358188 107.551814-41.358188 165.740629 0 47.515735 9.338946 93.594708 27.70896 136.902786 17.754259 41.871317 43.102826 79.534977 75.429946 111.862097 32.32712 32.32712 69.888154 57.675687 111.862097 75.429946C580.554019 885.737422 626.632993 894.973742 674.148727 894.973742s93.594708-9.338946 136.902786-27.70896c41.871317-17.754259 79.534977-43.102826 111.862097-75.429946 32.32712-32.32712 57.675687-69.888154 75.429946-111.862097 18.370014-43.410704 27.70896-89.489677 27.70896-136.902786S1016.71357 449.680497 998.343556 406.269794zM427.231108 394.570455c11.699339-12.520345 11.494087-32.121868-0.71838-44.23171L77.174584 0.897976l64.859491-64.756865 83.742634 0 0 63.730607c0 17.549008 14.57286 31.711365 32.121868 31.711365l64.346362 0 0 62.70435c0 8.415314 3.489276 16.420124 9.338946 22.372419L497.221888 284.350371c3.797154 3.797154 8.210062 6.465424 13.033474 8.004811 8.210062 2.873522 17.549008 2.360393 25.75907-2.155141 42.076568-22.988174 89.797555-35.200641 138.134295-35.200641 158.864702 0 288.173181 129.308479 288.173181 288.173181 0 158.864702-129.308479 288.173181-288.173181 288.173181s-288.173181-129.308479-288.173181-288.173181C385.975546 490.525556 400.240529 439.315294 427.231108 394.570455zM674.251353 383.589497c-88.155542 0-159.788334 71.735418-159.788334 159.788334s71.735418 159.788334 159.788334 159.788334 159.788334-71.735418 159.788334-159.788334S762.304269 383.589497 674.251353 383.589497zM674.251353 447.217478c53.057527 0 96.160353 43.102826 96.160353 96.160353s-43.102826 96.160353-96.160353 96.160353-96.160353-43.102826-96.160353-96.160353S621.193826 447.217478 674.251353 447.217478z"  horiz-adv-x="1027" />

    
    <glyph glyph-name="iconhelp1" unicode="&#59371;" d="M512 96.003335c-159.055586 0-287.998717 128.940052-287.998717 287.995638 0 159.058665 128.943131 287.998717 287.998717 287.998717 159.058665 0 287.998717-128.940052 287.998717-287.998717C799.998717 224.943387 671.058665 96.003335 512 96.003335zM480.979306 203.720377l63.632087 0 0 69.957939-63.632087 0L480.979306 203.720377zM508.002726 564.42022c-47.506498 0-104.601323-29.766607-104.601323-116.098489l61.452315 0 0 0.495683c2.178745 23.321708 7.846767 57.055827 47.068286 57.055827 18.307412 0 42.278741-10.41549 42.278741-49.116697 0-20.339403-10.022433-35.720954-27.02342-49.119776-40.092812-32.249124-44.451329-53.087288-44.451329-100.715911l57.525853 0c0 35.720954 7.846767 45.148158 26.585207 60.530736 33.561708 27.286142 52.739387 51.100453 52.739387 91.288707C619.57747 555.98746 534.153826 564.42022 508.002726 564.42022z"  horiz-adv-x="1024" />

    
    <glyph glyph-name="iconunknownapp" unicode="&#59386;" d="M512 736.006414l-320.910804-101.08639L514.052516 517.310884l321.01343 116.377631L512 736.006414 512 736.006414zM159.993586 200.607737l322.039687-168.614151 0 435.133293L159.993586 584.017639 159.993586 200.607737 159.993586 200.607737zM541.966727 464.766486l0-432.7729 322.039687 168.614151L864.006414 581.657246 541.966727 464.766486 541.966727 464.766486zM541.966727 464.766486"  horiz-adv-x="1024" />

    
    <glyph glyph-name="iconsystemapp" unicode="&#59390;" d="M831.987172 128.051313 192.012828 128.051313c-35.303267 0-64.038485 28.632592-64.038485 64.038485L127.974344 703.987172c0 35.303267 28.632592 64.038485 64.038485 64.038485l639.974344 0c35.303267 0 64.038485-28.632592 64.038485-64.038485L896.025656 191.987172C896.025656 156.683905 867.393065 128.051313 831.987172 128.051313zM864.006414 703.987172c0 17.651634-14.367609 32.019242-32.019242 32.019242L192.012828 736.006414c-17.651634 0-32.019242-14.367609-32.019242-32.019242L159.993586 191.987172c0-17.651634 14.367609-32.019242 32.019242-32.019242l639.974344 0c17.651634 0 32.019242 14.367609 32.019242 32.019242L864.006414 703.987172zM447.961515 159.967929l127.974344 0 0-159.993586L447.961515-0.025656 447.961515 159.967929zM256.051313 31.993586l512 0 0-32.019242L256.051313-0.025656 256.051313 31.993586zM335.996793 608.032071c26.47745 0 48.028863-21.448787 48.028863-48.028863 0-26.47745-21.448787-48.028863-48.028863-48.028863s-48.028863 21.448787-48.028863 48.028863C287.967929 586.480657 309.519343 608.032071 335.996793 608.032071zM352.006414 384c26.169573-56.444177 90.413309-95.955101 159.993586-95.955101s133.824013 39.510924 159.993586 95.955101l31.813991 0c-28.016837-74.506314-103.138906-127.974344-191.807577-127.974344S348.106635 309.493686 320.192423 384L352.006414 384zM688.003207 608.032071c26.47745 0 48.028863-21.448787 48.028863-48.028863 0-26.47745-21.448787-48.028863-48.028863-48.028863-26.47745 0-48.028863 21.448787-48.028863 48.028863C639.974344 586.480657 661.525757 608.032071 688.003207 608.032071z"  horiz-adv-x="1024" />

    
    <glyph glyph-name="iconotherapp" unicode="&#59391;" d="M416.044899 416.019242 192.012828 416.019242c-35.303267 0-64.038485 28.632592-64.038485 64.038485L127.974344 703.987172c0 35.303267 28.632592 64.038485 64.038485 64.038485l224.032071 0c35.303267 0 64.038485-28.632592 64.038485-64.038485l0-224.032071C479.980758 444.651834 451.348166 416.019242 416.044899 416.019242zM447.961515 703.987172c0 17.651634-14.367609 32.019242-32.019242 32.019242L192.012828 736.006414c-17.651634 0-32.019242-14.367609-32.019242-32.019242l0-224.032071c0-17.651634 14.367609-32.019242 32.019242-32.019242l224.032071 0c17.651634 0 32.019242 14.367609 32.019242 32.019242L448.064141 703.987172zM416.044899-0.025656 192.012828-0.025656c-35.303267 0-64.038485 28.632592-64.038485 64.038485L127.974344 288.044899c0 35.303267 28.632592 64.038485 64.038485 64.038485l224.032071 0c35.303267 0 64.038485-28.632592 64.038485-64.038485l0-224.032071C479.980758 28.606935 451.348166-0.025656 416.044899-0.025656zM447.961515 288.044899c0 17.651634-14.367609 32.019242-32.019242 32.019242L192.012828 320.064141c-17.651634 0-32.019242-14.367609-32.019242-32.019242l0-224.032071c0-17.651634 14.367609-32.019242 32.019242-32.019242l224.032071 0c17.651634 0 32.019242 14.367609 32.019242 32.019242L448.064141 288.044899zM831.987172 416.019242 607.955101 416.019242c-35.303267 0-64.038485 28.632592-64.038485 64.038485L543.916617 703.987172c0 35.303267 28.632592 64.038485 64.038485 64.038485l224.032071 0c35.303267 0 64.038485-28.632592 64.038485-64.038485l0-224.032071C896.025656 444.651834 867.393065 416.019242 831.987172 416.019242zM864.006414 703.987172c0 17.651634-14.367609 32.019242-32.019242 32.019242L607.955101 736.006414c-17.651634 0-32.019242-14.367609-32.019242-32.019242l0-224.032071c0-17.651634 14.367609-32.019242 32.019242-32.019242l224.032071 0c17.651634 0 32.019242 14.367609 32.019242 32.019242L864.006414 703.987172zM831.987172-0.025656 607.955101-0.025656c-35.303267 0-64.038485 28.632592-64.038485 64.038485L543.916617 288.044899c0 35.303267 28.632592 64.038485 64.038485 64.038485l224.032071 0c35.303267 0 64.038485-28.632592 64.038485-64.038485l0-224.032071C896.025656 28.606935 867.393065-0.025656 831.987172-0.025656zM864.006414 288.044899c0 17.651634-14.367609 32.019242-32.019242 32.019242L607.955101 320.064141c-17.651634 0-32.019242-14.367609-32.019242-32.019242l0-224.032071c0-17.651634 14.367609-32.019242 32.019242-32.019242l224.032071 0c17.651634 0 32.019242 14.367609 32.019242 32.019242L864.006414 288.044899z"  horiz-adv-x="1024" />

    
    <glyph glyph-name="iconwindowsos" unicode="&#59401;" d="M664.296653 637.793546 498.042894 612.034476 498.042894 489.088795 664.296653 489.088795ZM479.570255 471.642413 357.44558 471.642413 357.44558 375.995189 479.570255 358.138304ZM664.296653 471.642413 498.042894 471.642413 498.042894 357.009421 664.296653 331.045099ZM479.570255 612.239727 357.44558 593.356584 357.44558 489.088795 479.570255 489.088795ZM917.782321 767.20465 106.217679 767.20465c-21.243536 0-39.305672-14.264983-39.305672-32.840249L66.912006 163.251954c0-18.575266 18.062137-34.379635 39.305672-34.379635l299.564642 0-4.515534-60.343957c0 0 2.360393-10.980958-14.470235-26.272199-16.830627-15.188615-30.171978-29.145721-30.171978-29.145721s-1.94989-3.591902-1.94989-8.312688c0-4.823412 2.770896-5.233915 14.470235-5.233915l140.289437 0 5.131289 0 140.186811 0c11.699339 0 14.470235 0.410503 14.470235 5.233915 0 4.823412-1.94989 8.312688-1.94989 8.312688s-13.341351 14.059731-30.171978 29.350972c-16.830627 15.188615-14.470235 26.066947-14.470235 26.066947l-4.515534 60.343957 299.564642 0c21.14091 0 37.971537 15.80437 37.971537 34.379635L955.651233 734.364402C955.753858 752.939667 938.923231 767.20465 917.782321 767.20465zM490.961716 182.5456c0 11.494087 9.23632 20.833033 20.730407 20.833033 11.494087 0 20.730407-9.338946 20.730407-20.833033 0-11.494087-9.23632-20.833033-20.730407-20.833033C500.198036 161.712568 490.961716 171.051513 490.961716 182.5456zM925.992383 223.288034l-829.216276 0 0 515.181399 829.216276 0L925.992383 223.288034z"  horiz-adv-x="1024" />

    
    <glyph glyph-name="iconmoblie" unicode="&#59407;" d="M767.948687-128 256.051313-128c-52.954901 0-95.955101 43.102826-95.955101 95.955101L160.096212 800.044899c0 52.954901 43.102826 95.955101 95.955101 95.955101l512 0c52.954901 0 95.955101-43.102826 95.955101-95.955101l0-831.987172C864.006414-84.897174 820.903588-128 767.948687-128zM256.051313 831.961515c-17.651634 0-32.019242-14.367609-32.019242-32.019242l0-831.987172c0-17.651634 14.367609-32.019242 32.019242-32.019242l512 0c17.651634 0 32.019242 14.367609 32.019242 32.019242L800.070555 800.044899c0 17.651634-14.367609 32.019242-32.019242 32.019242L256.051313 832.064141zM736.032071 128.051313 287.967929 128.051313c-17.651634 0-32.019242 14.367609-32.019242 32.019242L255.948687 768.025656c0 17.651634 14.367609 32.019242 32.019242 32.019242l447.961515 0c17.651634 0 32.019242-14.367609 32.019242-32.019242l0-607.955101C767.948687 142.316296 753.683704 128.051313 736.032071 128.051313zM319.987172 191.987172 704.012828 191.987172 704.012828 736.006414 319.987172 736.006414 319.987172 191.987172zM512-31.634396c-35.71377 0-64.859491 29.043095-64.859491 64.859491s29.043095 64.859491 64.859491 64.859491 64.859491-29.043095 64.859491-64.859491S547.71377-31.634396 512-31.634396zM512 34.046101c-0.513129 0-0.821006-0.410503-0.821006-0.821006s0.410503-0.821006 0.821006-0.821006 0.821006 0.410503 0.821006 0.821006S512.513129 34.046101 512 34.046101z"  horiz-adv-x="1024" />

    
    <glyph glyph-name="iconsetupcenter" unicode="&#59408;" d="M866.366807 437.570655l-61.267589 9.441571c-16.317498 2.463019-33.353377 15.599118-37.971537 29.145721-4.515534 13.443977-13.238725 57.265183-3.489276 70.606534l36.637402 49.978753c9.749449 13.341351 8.210062 33.763881-3.489276 45.463219l-26.785328 26.785328c-11.699339 11.699339-32.121868 13.238725-45.463219 3.489276l-49.978753-36.637402c-13.341351-9.749449-34.482261-12.622971-47.002606-6.260172-12.520345 6.362798-50.184005 31.300862-52.647023 47.61836l-9.441571 61.267589c-2.463019 16.317498-18.062137 29.658849-34.584887 29.658849l-37.971537 0c-16.52275 0-32.121868-13.341351-34.584887-29.658849l-9.441571-61.267589c-2.463019-16.317498-15.599118-33.353377-29.145721-37.971537-13.443977-4.515534-57.265183-13.238725-70.606534-3.489276l-49.978753 36.637402c-13.341351 9.749449-33.763881 8.210062-45.463219-3.489276l-26.785328-26.785328c-11.699339-11.699339-13.238725-32.121868-3.489276-45.463219l36.637402-49.978753c9.749449-13.341351 12.622971-34.482261 6.260172-47.002606-6.362798-12.520345-31.300862-50.081379-47.61836-52.647023l-61.267589-9.441571c-16.317498-2.463019-29.658849-18.062137-29.658849-34.584887l0-37.971537c0-16.52275 13.341351-32.121868 29.658849-34.584887l61.267589-9.441571c16.317498-2.463019 33.353377-15.599118 37.971537-29.145721 4.515534-13.443977 13.238725-57.265183 3.489276-70.606534l-36.637402-49.978753c-9.749449-13.341351-8.210062-33.763881 3.489276-45.463219l26.785328-26.785328c11.699339-11.699339 32.121868-13.238725 45.463219-3.489276l49.978753 36.637402c13.341351 9.749449 34.482261 12.622971 47.002606 6.260172 12.520345-6.362798 50.081379-31.300862 52.647023-47.61836l9.441571-61.267589c2.463019-16.317498 18.062137-29.658849 34.584887-29.658849l37.971537 0c16.52275 0 32.121868 13.341351 34.584887 29.658849l9.441571 61.267589c2.463019 16.317498 15.599118 33.353377 29.043095 37.868912 13.443977 4.515534 57.265183 13.238725 70.606534 3.489276l49.978753-36.637402c13.341351-9.749449 33.763881-8.210062 45.463219 3.489276l26.785328 26.785328c11.699339 11.699339 13.238725 32.121868 3.489276 45.463219l-36.637402 49.978753c-9.749449 13.341351-12.622971 34.482261-6.260172 47.002606 6.362798 12.622971 31.300862 50.184005 47.61836 52.647023l61.267589 9.441571c16.317498 2.463019 29.658849 18.062137 29.658849 34.584887l0 37.971537C896.025656 419.508519 882.684305 435.005011 866.366807 437.570655L866.366807 437.570655zM512 232.11385c-83.84526 0-151.88615 67.938264-151.88615 151.88615s67.938264 151.88615 151.88615 151.88615 151.88615-67.938264 151.88615-151.88615S595.84526 232.11385 512 232.11385L512 232.11385zM571.830828 384c0-33.0455-26.785328-59.830828-59.830828-59.830828s-59.830828 26.785328-59.830828 59.830828 26.785328 59.830828 59.830828 59.830828S571.830828 417.0455 571.830828 384z"  horiz-adv-x="1024" />

    
    <glyph glyph-name="iconms" unicode="&#59412;" d="M938.615354 213.333333c0-47.105232-38.176789-85.28202-85.28202-85.28202l0 0L170.666667 128.051313c-47.105232 0-85.28202 38.176789-85.28202 85.28202s38.176789 85.28202 85.28202 85.28202l0 0 54.802165 277.910603c49.260373 171.385047 101.907396 183.187011 201.146522 218.387653L426.615354 810.615354C426.71798 857.823211 464.894768 896 512 896S597.28202 857.823211 597.28202 810.615354l0-15.701744c99.239126-35.303267 161.84085-48.028863 203.917418-220.440168L853.333333 298.71798l0 0C900.438565 298.71798 938.615354 260.438565 938.615354 213.333333zM512.513129-128c-105.294047 0-190.678693 86.103027-190.678693 192.21808l381.357386 0C703.191822-41.896973 617.807176-128 512.513129-128z"  horiz-adv-x="1024" />

    
    <glyph glyph-name="iconlunkrlogo" unicode="&#59414;" d="M895.717779 639.948687c0 70.70916-57.265183 127.974344-127.974344 127.974344L256.051313 767.923031c-70.70916 0-127.974344-57.265183-127.974344-127.974344L128.076969 128.35919c0-70.70916 57.265183-127.974344 127.974344-127.974344L767.64081 0.384847c70.70916 0 127.974344 57.265183 127.974344 127.974344L895.615153 639.948687zM541.966727 114.196833 322.45019 114.196833c-64.038485 0-114.325115 52.031269-114.325115 116.069753l0 317.11365c0 64.038485 50.389256 114.838244 114.325115 114.838244l219.516536 0c16.830627 0 30.479856-13.443977 30.479856-30.274604 0-16.830627-13.649228-30.274604-30.479856-30.274604L322.45019 601.669272c-30.274604 0-53.775907-24.014432-53.775907-54.289036l0-317.11365c0-30.274604 23.501303-54.494287 53.775907-54.494287l219.516536 0c16.830627 0 30.479856-13.957106 30.479856-30.787733S558.797354 114.196833 541.966727 114.196833zM816.285428 53.442373c0-12.315093-7.183804-23.398677-18.575266-28.119463-3.797154-1.539387-7.902185-2.360393-11.801964-2.360393-7.902185 0-15.701744 3.078773-21.551413 8.928443l-91.542193 91.542193c-11.90459 11.90459-11.801964 31.198236 0.102626 43.102826 11.90459 11.90459 31.403488 11.90459 43.308078 0l39.921427-39.61355L756.146723 529.010222 533.346162 306.517539c-8.723191-8.723191-22.372419-11.596713-34.482261-6.260172-3.489276 1.539387-6.56805 3.797154-9.23632 6.56805L367.708158 428.744839c-11.90459 11.90459-12.109842 31.198236 0.102626 43.102826 11.596713 11.90459 31.09561 11.90459 43.0002 0l100.573261-100.675887L763.535779 623.425937c11.494087 11.494087 30.171978 12.930848 42.384446 2.155141 6.978553-6.157547 10.467829-15.085989 10.365203-22.988174L816.285428 53.442373z"  horiz-adv-x="1024" />

    
    <glyph glyph-name="icontabclose30x30" unicode="&#58894;" d="M560.264533 384l112.401067 112.401067c13.346133 13.346133 13.346133 34.9184 0 48.264533s-34.9184 13.346133-48.264533 0L512 432.264533l-112.401067 112.401067c-13.346133 13.346133-34.9184 13.346133-48.264533 0s-13.346133-34.9184 0-48.264533L463.735467 384l-112.401067-112.401067c-13.346133-13.346133-13.346133-34.9184 0-48.264533C357.9904 216.6784 366.728533 213.333333 375.466667 213.333333s17.476267 3.345067 24.132267 10.001067L512 335.735467l112.401067-112.401067C631.057067 216.6784 639.7952 213.333333 648.533333 213.333333s17.476267 3.345067 24.132267 10.001067c13.346133 13.346133 13.346133 34.9184 0 48.264533L560.264533 384z"  horiz-adv-x="1024" />

    
    <glyph glyph-name="icon_back" unicode="&#58899;" d="M965.131 141.444c-157.486 394.12-536.207 323.412-536.207 323.412v-215.535l-428.924 323.266 428.924 323.413v-161.706c589.816-124.616 536.207-592.85 536.207-592.85M318.379-35.887v279.803l-92.185 74.633v-446.548h958.472v810.984l-423.517 0c46.57-36.876 85.293-73.747 117.43-110.623h213.908v-608.248h-774.108zM318.379-35.887z"  horiz-adv-x="1185" />

    
    <glyph glyph-name="email" unicode="&#59115;" d="M490.338462 303.261538c11.815385-11.815385 29.538462-11.815385 41.353846 0l445.046154 413.538462c7.876923 15.753846 5.907692 41.353846-25.6 41.353846l-880.246154-1.969231c-23.630769 0-43.323077-21.661538-25.6-41.353846l445.046154-411.569231zM984.615385 555.323077c0 19.692308-23.630769 31.507692-39.384616 17.723077L596.676923 252.061538c-23.630769-21.661538-53.169231-33.476923-84.676923-33.476923s-61.046154 11.815385-84.676923 31.507693L80.738462 573.046154c-15.753846 13.784615-39.384615 3.938462-39.384616-17.723077C39.384615 561.230769 39.384615 108.307692 39.384615 108.307692c0-43.323077 35.446154-78.769231 78.769231-78.76923h787.692308c43.323077 0 78.769231 35.446154 78.769231 78.76923V555.323077z"  horiz-adv-x="1024" />

    
    <glyph glyph-name="attachment" unicode="&#59652;" d="M695.028374 654.339315a30.297757 30.297757 0 0 1-30.297757-31.019132v-518.668753c0-116.502091-78.990582-168.801792-152.210163-168.080416s-151.849475 54.463826-151.849475 170.605229V732.247835a98.107024 98.107024 0 0 0 44.725261 89.811209 92.336023 92.336023 0 0 0 93.057398 0 99.910462 99.910462 0 0 0 44.364574-90.532585v-597.659334a74.301643 74.301643 0 0 0-12.624066-45.446637 24.166068 24.166068 0 0 0-18.395067-10.099252c-14.788191 0-30.297757 19.47713-29.93707 55.545889V593.383113a30.297757 30.297757 0 1 1-60.595515 0v-459.876676c0-77.187144 45.807324-117.944842 90.893273-118.305529a82.23677 82.23677 0 0 1 65.645141 33.183258 135.257846 135.257846 0 0 1 25.608819 84.761583V730.805084a162.309415 162.309415 0 0 1-74.662331 144.275036 152.931538 152.931538 0 0 1-154.013601 0 160.505977 160.505977 0 0 1-75.383706-144.275036v-625.071591c0-152.210163 108.206277-232.643495 212.44499-233.725558a208.116739 208.116739 0 0 1 149.685349 61.677578A234.446933 234.446933 0 0 1 724.604756 102.487304V622.598808a29.93707 29.93707 0 0 1-29.576382 31.740507z"  horiz-adv-x="1024" />

    
    <glyph glyph-name="man1" unicode="&#58898;" d="M366.222222 192c-59.022222 44.088889-97.422222 114.488889-97.422222 194.133333 0 133.688889 108.8 242.488889 242.488889 242.488889S753.777778 519.822222 753.777778 386.133333c0-79.644444-38.4-150.044444-97.422222-194.133333 110.222222-39.111111 199.822222-121.6 248.888888-226.133333 73.955556 88.177778 118.044444 201.955556 118.044445 326.4 0 282.311111-228.977778 510.577778-510.577778 510.577777C229.688889 802.133333 1.422222 573.866667 1.422222 291.555556c0-123.022222 43.377778-236.088889 115.911111-324.266667 49.066667 104.533333 139.377778 185.6 248.888889 224.711111z"  horiz-adv-x="1024" />

    
    <glyph glyph-name="myfiles" unicode="&#59838;" d="M63.943553 715.187864l55.995766-662.375728h60.872817l55.273241 501.613689h628.958899v85.25807H392.692891v75.503969zM193.095078 54.076557l90.135121 467.474334h676.826248L823.679661 54.076557z"  horiz-adv-x="1024" />

    
    <glyph glyph-name="youjian" unicode="&#58895;" d="M929.576 90.24h-837c-17.195 0-31.198 13.972-31.198 31.17V643.696c0 17.166 14.004 31.169 31.198 31.169h837c17.196 0 31.17-14.004 31.17-31.17V121.41c0-17.197-13.974-31.17-31.17-31.17zM90.018 117.554h842.116V647.549H90.018v-529.994zM920.32 93.431H101.834c-6.095 0-12.02 1.725-17.05 5.117L67.504 110.08l292.658 287.367 150.9-148.17 150.93 148.17 292.803-287.483-17.508-11.446c-5.064-3.392-10.93-5.087-16.968-5.087z m-560.245 264.65l-239.78-234.748 780.873 0.719-239.09 234.03-127.841-128.444c-12.336-12.306-33.383-12.306-45.717 0L360.075 358.082zM511.062 220.264c-8.483 0-16.503 3.337-22.541 9.374L64.513 653.645l16.273 12.02c5.32 3.94 11.59 5.952 18.203 5.952h824.178c6.641 0 12.881-2.013 18.198-5.952l16.274-12.02-424.007-424.007c-6.037-6.037-14.058-9.374-22.57-9.374z m-393.67 423.173l393.67-393.67L905.51 644.155l-788.119-0.718z"  horiz-adv-x="1024" />

    
    <glyph glyph-name="Mail-Forward" unicode="&#60594;" d="M0 896M511.624533 361.403733c-42.018133 0-81.408 17.6128-110.762666 49.527467l-264.874667 289.621333a17.123556 17.123556 0 0 0 1.092267 24.132267 17.1008 17.1008 0 0 0 24.132266-1.092267l264.8064-289.5872c45.602133-49.595733 125.6448-49.595733 171.281067 0.034134l264.328533 289.211733a17.089422 17.089422 0 0 0 24.132267 1.058133c6.9632-6.382933 7.4752-17.169067 1.058133-24.132266L622.455467 410.965333c-29.457067-31.9488-68.8128-49.5616-110.830934-49.5616zM148.5824 225.450667c-4.608 0-9.250133 1.911467-12.561067 5.597866a16.975644 16.975644 0 0 0 1.058134 24.064l232.8576 212.616534c6.9632 6.3488 17.783467 5.870933 24.132266-1.092267s5.870933-17.749333-1.092266-24.098133L160.1536 229.922133a17.260089 17.260089 0 0 0-11.5712-4.471466zM784.622933 307.746133c-4.130133 0-8.226133 1.467733-11.502933 4.471467l-142.916267 130.389333a17.021156 17.021156 0 0 0-1.058133 24.098134 16.987022 16.987022 0 0 0 24.064 1.092266l142.916267-130.389333a17.032533 17.032533 0 0 0-11.502934-29.661867zM989.9008 89.6h-238.933333a17.066667 17.066667 0 0 0 0 34.133333h238.933333c9.352533 0 17.066667-7.68 17.066667-17.066666s-7.714133-17.066667-17.066667-17.066667zM916.5824-3.208533c-3.652267 0-7.441067 1.194667-10.581333 3.584a17.021156 17.021156 0 0 0-2.798934 23.9616l64.785067 82.2272-64.785067 82.056533c-5.870933 7.441067-4.608 18.1248 2.798934 23.995733s18.158933 4.642133 23.995733-2.798933l73.216-92.740267a16.884622 16.884622 0 0 0 0-21.128533l-73.216-92.842667a17.476267 17.476267 0 0 0-13.4144-6.314666zM875.2128-106.666667c-127.010133 0-230.4 103.3216-230.4 230.4s103.389867 230.4 230.4 230.4c127.112533 0 230.4-103.3216 230.4-230.4s-103.287467-230.4-230.4-230.4z m0 426.666667c-108.202667 0-196.266667-88.064-196.266667-196.266667s88.064-196.266667 196.266667-196.266666c108.2368 0 196.266667 88.064 196.266667 196.266666s-88.029867 196.266667-196.266667 196.266667zM648.567467 89.6H106.2912C47.377067 89.6 0 154.965333 0 209.066667v554.666666c0 58.0608 50.619733 110.933333 106.2912 110.933334h810.666667c54.9888 0 107.076267-53.930667 107.076266-110.933334v-469.333333c0-9.386667-7.714133-17.066667-17.066666-17.066667a17.066667 17.066667 0 0 0-17.066667 17.066667v469.333333c0 38.775467-36.181333 76.8-72.942933 76.8H106.2912C69.870933 840.533333 34.133333 802.5088 34.133333 763.733333v-554.666666c0-37.2736 34.952533-85.333333 72.157867-85.333334h542.276267c9.352533 0 17.066667-7.68 17.066666-17.066666s-7.714133-17.066667-17.066666-17.066667z"  horiz-adv-x="1105" />

    
    <glyph glyph-name="files" unicode="&#58886;" d="M0 532.355641l0.228181-587.565921c0-40.464087 39.399242-72.78972 85.567853-72.78972h1046.285671c46.16861 0 83.666345 32.934116 83.666345 73.626383V542.471663H0v-10.116022zM1216.812895 712.694645c0 40.616207-38.410458 73.170022-84.426948 73.170021H701.047909v16.048726C701.047909 853.862586 654.270816 896 597.149521 896H106.180198C48.982842 896 0.228181 850.896234 0.228181 799.0231v-179.958701H1216.965015l-0.15212 93.630246z"  horiz-adv-x="1216" />

    
    <glyph glyph-name="man" unicode="&#58897;" d="M869.4 135.1l-188.9 77.1s-36 14.6-50 29c-9 9.3-8.3 31.1-0.4 58.9 7.9 27.8 104.8 141.2 104.8 244.1 0 159-99.9 287.8-223 287.8s-223-128.8-223-287.8c0-98.6 86.3-216.1 97-237.5 10.7-21.3 8.1-53.9-0.4-63.8-12.7-14.8-58.8-29.7-58.8-29.7l-170.3-79.4c-39.8-14.9-71-54.2-71-98.5v-21c0-48.4 37.5-78 83.7-78h687.8c46.2 0 83.7 29.6 83.7 78v21c-0.2 44.4-31.5 84.9-71.2 99.8z"  horiz-adv-x="1024" />

    
    <glyph glyph-name="icon-create" unicode="&#59002;" d="M448 448V832h128v-384h384v-128H576v-384H448V320H64V448h384z"  horiz-adv-x="1024" />

    
    <glyph glyph-name="icon_create" unicode="&#59005;" d="M512 896a512 512 0 1 1 512-512A512 512 0 0 1 512 896z m307.2-556.8H556.8v-262.4a44.8 44.8 0 0 0-89.6 0V339.2H204.8a44.8 44.8 0 0 0 0 89.6h262.4V691.2a44.8 44.8 0 0 0 89.6 0v-262.4h262.4a44.8 44.8 0 0 0 0-89.6z"  horiz-adv-x="1024" />

    
    <glyph glyph-name="icon-gender-man" unicode="&#58937;" d="M512 896A512 512 0 1 0 0 384 512 512 0 0 0 512 896z m298.666667-256l-179.2-4.693333-59.221334-58.282667 122.197334 3.072-63.061334-61.824-44.714666-44.032a213.333333 213.333333 0 0 1-114.901334 32.298667A216.618667 216.618667 0 0 1 256 294.4a209.066667 209.066667 0 0 1 212.608-209.066667 216.661333 216.661333 0 0 1 215.808 212.309334 204.544 204.544 0 0 1-40.277333 123.733333l27.008 26.581333 78.506666 78.037334-3.157333-120.832 59.477333 58.581333z m-341.632-489.045333a143.658667 143.658667 0 0 0-146.176 143.786666 148.992 148.992 0 0 0 148.352 145.962667 143.616 143.616 0 0 0 146.176-143.786667 148.906667 148.906667 0 0 0-148.352-145.792z"  horiz-adv-x="1024" />

    
    <glyph glyph-name="icon-gender-woman" unicode="&#58938;" d="M512 896A512 512 0 1 0 0 384 512 512 0 0 0 512 896z m230.016-610.901333a232.96 232.96 0 1 1-355.456 31.445333l-50.816-50.858667-64.853333 64.938667L213.333333 273.066667l64.853334-64.938667L213.333333 143.274667 270.933333 85.333333l64.810667 64.896L400.597333 85.333333l57.6 57.685334-64.810666 64.896 50.816 50.858666a232.96 232.96 0 0 1 297.813333 26.325334zM464.256 563.2a160.128 160.128 0 1 0 0-226.56 160.042667 160.042667 0 0 0 0 226.56z"  horiz-adv-x="1024" />

    
    <glyph glyph-name="apple" unicode="&#58919;" d="M136.772826 519.574243c-86.569967-150.225836-31.535843-378.20181 64.196407-516.431738C248.75478-65.965744 297.134584-128 363.399134-128c1.248944 0 2.501246 0.023502 3.783764 0.073862 31.132957 1.24223 53.630741 10.827541 75.383187 20.090545 24.421561 10.407869 49.679108 21.168262 89.296158 21.168262 37.689915 0 61.742164-10.411226 85.002072-20.476643 22.92417-9.917692 46.536603-20.177836 81.426465-19.523147 74.641207 1.389954 120.469403 68.329338 160.902295 127.382242 42.192157 61.65823 63.357062 121.52362 70.498204 144.400787l0.288734 0.909849a8.393443 8.393443 0 0 1-4.458597 10.293718c-0.107436 0.050361-0.503607 0.214872-0.6144 0.261876-13.144131 5.375161-128.443174 56.5248-129.655186 195.936524-1.124721 113.264472 86.496105 173.244013 104.068616 184.1152l0.8192 0.510322a8.386728 8.386728 0 0 1 2.383738 11.787751c-60.47979 88.507174-153.17697 101.846033-190.497574 103.450859a168.01322 168.01322 0 0 1-16.619017 0.812485c-43.833915 0-85.82463-16.555226-119.559554-29.857154-23.286767-9.182426-43.400813-17.112551-57.273495-17.112551-15.588302 0-35.816498 8.027489-59.240918 17.320708-31.324328 12.432367-66.82859 26.519921-104.414426 26.519921-0.89642 0-1.77941-0.010072-2.64897-0.026859-87.392525-1.285875-169.97057-51.283934-215.496604-130.464314zM712.10303 895.993285c-52.922334-2.155436-116.406977-34.732066-154.352053-79.177023-32.247607-37.357534-63.749875-99.643593-55.450439-162.426544a8.390085 8.390085 0 0 1 7.668249-7.265364c3.572249-0.278662 7.218361-0.419672 10.851043-0.423029 51.747252 0 107.570361 28.628354 145.693377 74.725141 40.124013 48.675252 60.412643 111.14261 54.275357 167.096655a8.443803 8.443803 0 0 1-8.685534 7.470164z"  horiz-adv-x="1024" />

    
    <glyph glyph-name="icon-email" unicode="&#58959;" d="M163.84 716.8h696.32c47.488 0 86.4384-37.632 87.04-83.7632l-435.0464-236.928-434.944 236.6336C77.5808 679.0656 116.2368 716.8 163.84 716.8zM77.2096 542.08L76.8 123.1616C76.8 76.544 115.9424 38.4 163.84 38.4h696.32c47.8976 0 87.04 38.144 87.04 84.7616V542.2848L522.4192 316.4544a22.016 22.016 0 0 0-20.8384 0L77.1968 542.08z"  horiz-adv-x="1024" />

    
    <glyph glyph-name="icon-email-copy" unicode="&#60595;" d="M225.125 658.21875001h573.75c39.12890625 0 71.22304687-31.0078125 71.71875001-69.01875001l-358.46718751-195.22265625-358.38281249 194.98007812C154.04960937 627.1265625 185.90117187 658.21875001 225.125 658.21875001zM153.74374999 514.25390625L153.40624999 169.07578124999998C153.40624999 130.6640625 185.65859375 99.234375 225.125 99.234375h573.75c39.46640625 0 71.71875001 31.4296875 71.71875001 69.84140625V514.42265625L520.58515625 328.34414062999997a18.140625 18.140625 0 0 0-17.1703125 0L153.73320311 514.25390625z"  horiz-adv-x="1024" />

    
    <glyph glyph-name="iconhelp1-copy" unicode="&#60596;" d="M512 161.52943167c-122.86665408 0-222.47215345 99.60312092-222.47215345 222.469775 0 122.86903253 99.60549938 222.47215345 222.47215345 222.47215343 122.86903253 0 222.47215345-99.60312092 222.47215345-222.47215343C734.47215345 261.13255259000005 634.86903253 161.52943167 512 161.52943167zM488.03725229 244.73828256000002l49.15427253 0 0 54.04084262-49.15427253 0L488.03725229 244.73828256000002zM508.91220098 523.37032527c-36.69763887 0-80.80203212-22.99399535-80.80203212-89.68331917l47.47045056 0 0 0.38290333c1.68302865 18.01546429 6.06144073 44.07426822 36.35913053 44.0742682 14.14203998 0 32.65932103-8.04571809 32.65932103-37.94147927 0-15.71170466-7.74209092-27.59358667-20.87494869-37.94385772-30.97074292-24.91168064-34.33759355-41.0086663-34.33759355-77.80064383l44.43735211 0c0 27.59358667 6.06144073 34.87587737 20.53643959 46.7585527 25.92562054 21.07789519 40.73992106 39.47388356 40.73992105 70.51835315C595.10103484 516.85621892 529.11330324 523.37032527 508.91220098 523.37032527z"  horiz-adv-x="1024" />

    


  </font>
</defs>
</svg>
